<svg xmlns="http://www.w3.org/2000/svg" viewBox="78.8211 56.9603 158 260">
  <path d="M 211.916 66.172 l 1.5 29 c 2.6 25 7.1 39.9 11.1 53.1 c 3.7 12.2 7.1 23.7 8.4 39.9 c 2.7 34.6 -23.4 56.1 -31.9 63.1 l -0.1 0.1 c -0.5 0.4 -1 0.8 -1.4 1.1 c -0.2 0.2 -0.4 0.4 -0.5 0.5 c 0 0.1 0.1 0.5 0.1 0.5 c 0.6 1.6 3.7 8 5.4 11.5 c 1.2 2.5 2.4 4.9 3.2 6.7 c 0.3 0.6 0.6 1.2 0.9 1.9 c 1.6 3.2 4.1 8.1 4.6 13.6 c 0.8 8.3 -2.7 15.3 -10 19.7 c -5.9 3.6 -17.4 5.8 -34.2 6.7 v 0.3 l -10 0 c -0.2 0 -0.9 0 -2 0 c -1.1 0 -1.8 0 -2 0 h -10 v -0.4 c -16.9 -0.9 -28.3 -3.1 -34.2 -6.7 c -7.3 -4.4 -10.9 -11.4 -10 -19.7 c 0.6 -5.5 3 -10.4 4.6 -13.6 c 0.3 -0.7 0.6 -1.3 0.9 -1.9 c 0.9 -1.8 2 -4.2 3.2 -6.7 l 0 -0.1 c 1.7 -3.5 4.7 -9.8 5.3 -11.4 c 0 0 0.1 -0.3 0.1 -0.5 c -0.1 -0.1 -0.3 -0.3 -0.5 -0.5 c -0.4 -0.3 -0.8 -0.7 -1.4 -1.1 l -0.1 -0.1 c -8.5 -7.1 -34.6 -28.5 -31.9 -63.1 c 1.3 -16.2 4.7 -27.7 8.4 -39.9 c 4 -13.2 8.5 -28.1 11.1 -53.1 l 1.5 -29 c 36.277 11.597 74.699 10.084 109.792 0 C 180.755 57.399 139.914 55.887 102.097 65.87" stroke="#000000" stroke-width="2" fill="none"/>
</svg>